<mxfile host="app.diagrams.net" modified="2023-06-09T08:20:04.929Z" agent="Mozilla/5.0 (Macintosh; Intel Mac OS X 10_15_7) AppleWebKit/537.36 (KHTML, like Gecko) Chrome/113.0.0.0 Safari/537.36" etag="IGdzAOxqeqwtD-nbdlHp" version="21.3.8" type="github">
  <diagram name="第 1 页" id="yNtUiS9m5K9kPzd5mnGe">
    <mxGraphModel dx="1434" dy="796" grid="1" gridSize="10" guides="1" tooltips="1" connect="1" arrows="1" fold="1" page="1" pageScale="1" pageWidth="827" pageHeight="1169" math="0" shadow="0">
      <root>
        <mxCell id="0" />
        <mxCell id="1" parent="0" />
        <mxCell id="9jmgtLZRDy8_OFE2NWNW-1" value="&lt;b&gt;&lt;font style=&quot;font-size: 18px;&quot;&gt;HugeServer&lt;/font&gt;&lt;/b&gt;" style="whiteSpace=wrap;html=1;aspect=fixed;fillColor=#99CCFF;sketch=1;curveFitting=1;jiggle=2;" vertex="1" parent="1">
          <mxGeometry x="30" y="120" width="140" height="140" as="geometry" />
        </mxCell>
        <mxCell id="9jmgtLZRDy8_OFE2NWNW-2" value="&lt;font style=&quot;font-size: 18px;&quot;&gt;&lt;b&gt;HugeServer&lt;/b&gt;&lt;/font&gt;" style="whiteSpace=wrap;html=1;aspect=fixed;fillColor=#99CCFF;sketch=1;curveFitting=1;jiggle=2;" vertex="1" parent="1">
          <mxGeometry x="30" y="290" width="140" height="140" as="geometry" />
        </mxCell>
        <mxCell id="9jmgtLZRDy8_OFE2NWNW-3" value="&lt;font style=&quot;font-size: 18px;&quot;&gt;&lt;b&gt;HugeServer&lt;/b&gt;&lt;/font&gt;" style="whiteSpace=wrap;html=1;aspect=fixed;fillColor=#99CCFF;sketch=1;curveFitting=1;jiggle=2;" vertex="1" parent="1">
          <mxGeometry x="20" y="500" width="140" height="140" as="geometry" />
        </mxCell>
        <mxCell id="9jmgtLZRDy8_OFE2NWNW-4" value="&lt;font style=&quot;font-size: 18px;&quot;&gt;&lt;b&gt;Prometheus&lt;/b&gt;&lt;/font&gt;" style="whiteSpace=wrap;html=1;aspect=fixed;fillColor=#FFCCCC;sketch=1;curveFitting=1;jiggle=2;" vertex="1" parent="1">
          <mxGeometry x="376" y="300" width="140" height="140" as="geometry" />
        </mxCell>
        <mxCell id="9jmgtLZRDy8_OFE2NWNW-5" value="" style="edgeStyle=orthogonalEdgeStyle;rounded=0;orthogonalLoop=1;jettySize=auto;html=1;sketch=1;curveFitting=1;jiggle=2;" edge="1" parent="1" source="9jmgtLZRDy8_OFE2NWNW-6" target="9jmgtLZRDy8_OFE2NWNW-4">
          <mxGeometry relative="1" as="geometry" />
        </mxCell>
        <mxCell id="9jmgtLZRDy8_OFE2NWNW-6" value="&lt;font style=&quot;font-size: 18px;&quot;&gt;&lt;b&gt;Grafana&lt;/b&gt;&lt;/font&gt;" style="whiteSpace=wrap;html=1;aspect=fixed;fillColor=#FFE6CC;sketch=1;curveFitting=1;jiggle=2;" vertex="1" parent="1">
          <mxGeometry x="620" y="300" width="140" height="140" as="geometry" />
        </mxCell>
        <mxCell id="9jmgtLZRDy8_OFE2NWNW-14" value="" style="edgeStyle=orthogonalEdgeStyle;rounded=0;orthogonalLoop=1;jettySize=auto;html=1;" edge="1" parent="1" source="9jmgtLZRDy8_OFE2NWNW-7" target="9jmgtLZRDy8_OFE2NWNW-1">
          <mxGeometry relative="1" as="geometry" />
        </mxCell>
        <mxCell id="9jmgtLZRDy8_OFE2NWNW-7" value="&lt;b&gt;Exporter&lt;/b&gt;" style="rounded=0;whiteSpace=wrap;html=1;fillColor=#FFCCCC;sketch=1;curveFitting=1;jiggle=2;align=center;horizontal=0;verticalAlign=middle;" vertex="1" parent="1">
          <mxGeometry x="240" y="145" width="50" height="90" as="geometry" />
        </mxCell>
        <mxCell id="9jmgtLZRDy8_OFE2NWNW-16" value="" style="edgeStyle=orthogonalEdgeStyle;rounded=0;orthogonalLoop=1;jettySize=auto;html=1;" edge="1" parent="1" source="9jmgtLZRDy8_OFE2NWNW-8" target="9jmgtLZRDy8_OFE2NWNW-3">
          <mxGeometry relative="1" as="geometry" />
        </mxCell>
        <mxCell id="9jmgtLZRDy8_OFE2NWNW-8" value="&lt;b&gt;Exporter&lt;/b&gt;" style="rounded=0;whiteSpace=wrap;html=1;fillColor=#FFCCCC;sketch=1;curveFitting=1;jiggle=2;verticalAlign=middle;horizontal=0;" vertex="1" parent="1">
          <mxGeometry x="240" y="520" width="50" height="90" as="geometry" />
        </mxCell>
        <mxCell id="9jmgtLZRDy8_OFE2NWNW-15" value="" style="edgeStyle=orthogonalEdgeStyle;rounded=0;orthogonalLoop=1;jettySize=auto;html=1;" edge="1" parent="1" source="9jmgtLZRDy8_OFE2NWNW-9" target="9jmgtLZRDy8_OFE2NWNW-2">
          <mxGeometry relative="1" as="geometry" />
        </mxCell>
        <mxCell id="9jmgtLZRDy8_OFE2NWNW-9" value="&lt;b&gt;Exporter&lt;/b&gt;" style="rounded=0;whiteSpace=wrap;html=1;fillColor=#FFCCCC;sketch=1;curveFitting=1;jiggle=2;verticalAlign=middle;textDirection=rtl;horizontal=0;" vertex="1" parent="1">
          <mxGeometry x="240" y="315" width="50" height="90" as="geometry" />
        </mxCell>
        <mxCell id="9jmgtLZRDy8_OFE2NWNW-10" value="" style="endArrow=none;dashed=1;html=1;dashPattern=1 3;strokeWidth=6;rounded=0;entryX=0.407;entryY=1.029;entryDx=0;entryDy=0;entryPerimeter=0;sketch=1;curveFitting=1;jiggle=2;" edge="1" parent="1">
          <mxGeometry width="50" height="50" relative="1" as="geometry">
            <mxPoint x="89.52" y="495.94" as="sourcePoint" />
            <mxPoint x="89.50000000000001" y="439.99999999999994" as="targetPoint" />
          </mxGeometry>
        </mxCell>
        <mxCell id="9jmgtLZRDy8_OFE2NWNW-11" value="" style="endArrow=classic;html=1;rounded=0;entryX=0.98;entryY=0.589;entryDx=0;entryDy=0;entryPerimeter=0;exitX=-0.021;exitY=0.336;exitDx=0;exitDy=0;exitPerimeter=0;sketch=1;curveFitting=1;jiggle=2;" edge="1" parent="1" source="9jmgtLZRDy8_OFE2NWNW-4" target="9jmgtLZRDy8_OFE2NWNW-7">
          <mxGeometry width="50" height="50" relative="1" as="geometry">
            <mxPoint x="380" y="215" as="sourcePoint" />
            <mxPoint x="430" y="165" as="targetPoint" />
            <Array as="points">
              <mxPoint x="340" y="347" />
              <mxPoint x="340" y="198" />
            </Array>
          </mxGeometry>
        </mxCell>
        <mxCell id="9jmgtLZRDy8_OFE2NWNW-12" value="" style="endArrow=classic;html=1;rounded=0;entryX=0.98;entryY=0.589;entryDx=0;entryDy=0;entryPerimeter=0;exitX=-0.036;exitY=0.857;exitDx=0;exitDy=0;exitPerimeter=0;sketch=1;curveFitting=1;jiggle=2;" edge="1" parent="1" source="9jmgtLZRDy8_OFE2NWNW-4">
          <mxGeometry width="50" height="50" relative="1" as="geometry">
            <mxPoint x="380" y="719" as="sourcePoint" />
            <mxPoint x="292" y="570" as="targetPoint" />
            <Array as="points">
              <mxPoint x="343" y="420" />
              <mxPoint x="343" y="570" />
            </Array>
          </mxGeometry>
        </mxCell>
        <mxCell id="9jmgtLZRDy8_OFE2NWNW-13" value="" style="endArrow=classic;html=1;rounded=0;entryX=1;entryY=0.5;entryDx=0;entryDy=0;exitX=-0.029;exitY=0.429;exitDx=0;exitDy=0;exitPerimeter=0;sketch=1;curveFitting=1;jiggle=2;" edge="1" parent="1">
          <mxGeometry width="50" height="50" relative="1" as="geometry">
            <mxPoint x="375.94000000000005" y="379.05999999999995" as="sourcePoint" />
            <mxPoint x="290" y="379" as="targetPoint" />
            <Array as="points">
              <mxPoint x="340" y="379" />
            </Array>
          </mxGeometry>
        </mxCell>
      </root>
    </mxGraphModel>
  </diagram>
</mxfile>
